<svg xmlns="http://www.w3.org/2000/svg" width="860" height="580" viewBox="0 0 860 580" font-family="Segoe UI, Roboto, system-ui, sans-serif">
  <defs>
    <filter id="shadow" x="-20%" y="-20%" width="140%" height="140%">
      <feDropShadow dx="0" dy="8" stdDeviation="14" flood-color="#0b2545" flood-opacity="0.18"/>
    </filter>
  </defs>

  <rect width="860" height="580" fill="#eef2f8"/>

  <!-- Okno aplikacji -->
  <g filter="url(#shadow)">
    <rect x="40" y="28" width="780" height="524" rx="18" fill="#f3f6fb"/>
  </g>

  <!-- Nagłówek -->
  <path d="M40 46 a18 18 0 0 1 18 -18 h744 a18 18 0 0 1 18 18 v46 h-780 z" fill="#0b2545"/>
  <rect x="60" y="44" width="38" height="38" rx="10" fill="#ffffff20"/>
  <path d="M67 80 h24 M69 80 V69 l10 -7 l10 7 V80 M75 80 v-6 h8 v6" fill="none" stroke="#ffffff" stroke-width="2" stroke-linejoin="round" stroke-linecap="round"/>
  <text x="110" y="60" fill="#ffffff" font-size="16" font-weight="700">Bank</text>
  <text x="110" y="78" fill="#ffffffba" font-size="12">Asystent klienta</text>

  <!-- Pasek narzędzi: licznik tokenów + przyciski -->
  <rect x="600" y="48" width="104" height="24" rx="12" fill="#ffffff1a" stroke="#ffffff2e"/>
  <text x="652" y="64" fill="#ffffffd0" font-size="11" font-weight="600" text-anchor="middle">~1 248 tokens</text>
  <circle cx="730" cy="60" r="14" fill="#ffffff1a"/>
  <path d="M723 56 h14 M723 60 h14 M723 64 h14" fill="none" stroke="#ffffff" stroke-width="1.7" stroke-linecap="round"/>
  <circle cx="766" cy="60" r="14" fill="#ffffff1a"/>
  <path d="M770 53 a7 7 0 1 0 4 13 8 8 0 0 1 -4 -13 z" fill="none" stroke="#ffffff" stroke-width="1.7" stroke-linejoin="round"/>
  <circle cx="802" cy="60" r="14" fill="#ffffff1a"/>
  <circle cx="802" cy="60" r="3.2" fill="none" stroke="#ffffff" stroke-width="1.6"/>
  <path d="M802 52 v-2.5 M802 68 v2.5 M794 60 h-2.5 M810 60 h2.5 M796.5 54.5 l-1.8 -1.8 M807.5 65.5 l1.8 1.8 M807.5 54.5 l1.8 -1.8 M796.5 65.5 l-1.8 1.8" fill="none" stroke="#ffffff" stroke-width="1.6" stroke-linecap="round"/>

  <!-- Powitanie asystenta -->
  <g>
    <rect x="60" y="106" width="432" height="64" rx="16" fill="#ffffff" stroke="#e2e8f0"/>
    <text x="78" y="131" fill="#0f172a" font-size="12.5">Dzień dobry. Jestem wirtualnym asystentem banku.</text>
    <text x="78" y="150" fill="#0f172a" font-size="12.5">W czym mogę Panu/Pani pomóc?</text>
    <text x="78" y="184" fill="#5b6b82" font-size="10.5">Asystent · 09:14</text>
  </g>

  <!-- Chipy z podpowiedziami -->
  <g font-size="11" fill="#13315c">
    <rect x="60" y="198" width="150" height="28" rx="14" fill="#ffffff" stroke="#cdd7e6"/>
    <text x="135" y="216" text-anchor="middle">Jak otworzyć konto?</text>
    <rect x="218" y="198" width="120" height="28" rx="14" fill="#ffffff" stroke="#cdd7e6"/>
    <text x="278" y="216" text-anchor="middle">Czas przelewu</text>
    <rect x="346" y="198" width="148" height="28" rx="14" fill="#ffffff" stroke="#cdd7e6"/>
    <text x="420" y="216" text-anchor="middle">Zastrzeżenie karty</text>
  </g>

  <!-- Wiadomość użytkownika -->
  <g>
    <rect x="490" y="248" width="290" height="38" rx="16" fill="#0b2545"/>
    <text x="764" y="272" fill="#ffffff" font-size="12.5" text-anchor="end">Jak otworzyć konto osobiste?</text>
    <text x="764" y="298" fill="#5b6b82" font-size="10.5" text-anchor="end">Ty · 09:14</text>
  </g>

  <!-- Odpowiedź asystenta ze streamingiem i oceną -->
  <g>
    <rect x="60" y="316" width="476" height="84" rx="16" fill="#ffffff" stroke="#e2e8f0"/>
    <text x="78" y="344" fill="#0f172a" font-size="12.5">Konto otworzysz w pełni online w około 10 minut —</text>
    <text x="78" y="364" fill="#0f172a" font-size="12.5">wystarczy wniosek i potwierdzenie tożsamości</text>
    <text x="78" y="384" fill="#0f172a" font-size="12.5">przelewem weryfikacyjnym lub w aplikacji mObywatel.<tspan fill="#2563eb" font-weight="700">▋</tspan></text>
  </g>
  <!-- Oceny: przydatna / nieprzydatna -->
  <rect x="78" y="412" width="32" height="24" rx="8" fill="#ecfdf3" stroke="#16794c"/>
  <path d="M86 428 v-6 m4 6 l3 -1 1 -4 h-3 l1 -3 -3 2 v6 z" fill="none" stroke="#16794c" stroke-width="1.4" stroke-linejoin="round"/>
  <rect x="116" y="412" width="32" height="24" rx="8" fill="#ffffff" stroke="#e2e8f0"/>
  <path d="M124 420 v6 m4 -6 l3 1 1 4 h-3 l1 3 -3 -2 v-6 z" fill="none" stroke="#5b6b82" stroke-width="1.4" stroke-linejoin="round"/>

  <!-- Pole wpisywania -->
  <g>
    <rect x="60" y="486" width="700" height="46" rx="16" fill="#ffffff" stroke="#e2e8f0"/>
    <text x="80" y="514" fill="#5b6b82" font-size="12.5">Napisz wiadomość… (np. Jak zrobić przelew?)</text>
    <rect x="706" y="492" width="38" height="34" rx="11" fill="#2563eb"/>
    <path d="M717 510 l16 -6 -6 16 -3 -7 -7 -3 z" fill="none" stroke="#ffffff" stroke-width="2" stroke-linejoin="round"/>
  </g>
</svg>
