<svg xmlns="http://www.w3.org/2000/svg" width="880" height="600" viewBox="0 0 880 600" font-family="Segoe UI, Roboto, system-ui, sans-serif">
  <defs>
    <filter id="shadow" x="-20%" y="-20%" width="140%" height="140%">
      <feDropShadow dx="0" dy="10" stdDeviation="16" flood-color="#0b2545" flood-opacity="0.20"/>
    </filter>
  </defs>

  <rect width="880" height="600" fill="#e8edf5"/>

  <!-- Okno przeglądarki -->
  <g filter="url(#shadow)">
    <rect x="40" y="30" width="800" height="540" rx="14" fill="#ffffff"/>
  </g>

  <!-- Pasek przeglądarki -->
  <path d="M40 44 a14 14 0 0 1 14 -14 h772 a14 14 0 0 1 14 14 v30 h-800 z" fill="#eef2f8"/>
  <line x1="40" y1="74" x2="840" y2="74" stroke="#e2e8f0" stroke-width="1"/>
  <circle cx="66" cy="52" r="6" fill="#ff5f57"/>
  <circle cx="86" cy="52" r="6" fill="#febc2e"/>
  <circle cx="106" cy="52" r="6" fill="#28c840"/>
  <rect x="150" y="41" width="560" height="22" rx="11" fill="#ffffff" stroke="#dde4ee"/>
  <rect x="163.5" y="51" width="9" height="7" rx="1.5" fill="none" stroke="#5b6b82" stroke-width="1.2"/>
  <path d="M165.5 51 v-2 a2.5 2.5 0 0 1 5 0 v2" fill="none" stroke="#5b6b82" stroke-width="1.2"/>
  <text x="180" y="56" fill="#5b6b82" font-size="11">dolildev.github.io/ChatBankAssist</text>

  <!-- Nagłówek aplikacji -->
  <rect x="40" y="74" width="800" height="58" fill="#0b2545"/>
  <rect x="60" y="88" width="34" height="34" rx="9" fill="#ffffff20"/>
  <path d="M66 114 h22 M68 114 V103 l9 -6 l9 6 V114 M73 114 v-6 h8 v6" fill="none" stroke="#ffffff" stroke-width="2" stroke-linejoin="round" stroke-linecap="round"/>
  <text x="104" y="99" fill="#ffffff" font-size="15" font-weight="700">Bank</text>
  <text x="104" y="116" fill="#ffffffb0" font-size="11">Asystent klienta</text>

  <rect x="647" y="92" width="104" height="22" rx="11" fill="#ffffff1a" stroke="#ffffff2e"/>
  <text x="699" y="107" fill="#ffffffd0" font-size="10.5" font-weight="600" text-anchor="middle">~1 248 tokens</text>
  <circle cx="776" cy="103" r="13" fill="#ffffff1a"/>
  <path d="M780 96 a6.5 6.5 0 1 0 3.5 12 7.5 7.5 0 0 1 -3.5 -12 z" fill="none" stroke="#ffffff" stroke-width="1.6" stroke-linejoin="round"/>
  <circle cx="812" cy="103" r="13" fill="#ffffff1a"/>
  <circle cx="812" cy="103" r="3" fill="none" stroke="#ffffff" stroke-width="1.5"/>
  <path d="M812 95.5 v-2 M812 110.5 v2 M804.5 103 h-2 M819.5 103 h2 M806.7 97.7 l-1.5 -1.5 M817.3 108.3 l1.5 1.5 M817.3 97.7 l1.5 -1.5 M806.7 108.3 l-1.5 1.5" fill="none" stroke="#ffffff" stroke-width="1.5" stroke-linecap="round"/>

  <!-- Tło obszaru czatu (z zaokrąglonym dołem okna) -->
  <path d="M40 132 h800 v424 a14 14 0 0 1 -14 14 h-772 a14 14 0 0 1 -14 -14 z" fill="#f3f6fb"/>

  <!-- Powitanie asystenta -->
  <g>
    <rect x="60" y="152" width="432" height="62" rx="16" fill="#ffffff" stroke="#e2e8f0"/>
    <text x="78" y="177" fill="#0f172a" font-size="12.5">Dzień dobry. Jestem wirtualnym asystentem banku.</text>
    <text x="78" y="196" fill="#0f172a" font-size="12.5">W czym mogę Panu/Pani pomóc?</text>
    <text x="78" y="230" fill="#5b6b82" font-size="10.5">Asystent · 09:14</text>
  </g>

  <!-- Wiadomość użytkownika -->
  <g>
    <rect x="490" y="250" width="300" height="38" rx="16" fill="#0b2545"/>
    <text x="774" y="274" fill="#ffffff" font-size="12.5" text-anchor="end">Jak otworzyć konto osobiste?</text>
    <text x="774" y="300" fill="#5b6b82" font-size="10.5" text-anchor="end">Ty · 09:14</text>
  </g>

  <!-- Odpowiedź asystenta ze streamingiem i oceną -->
  <g>
    <rect x="60" y="318" width="478" height="84" rx="16" fill="#ffffff" stroke="#e2e8f0"/>
    <text x="78" y="346" fill="#0f172a" font-size="12.5">Konto otworzysz w pełni online w około 10 minut —</text>
    <text x="78" y="366" fill="#0f172a" font-size="12.5">wystarczy wniosek i potwierdzenie tożsamości</text>
    <text x="78" y="386" fill="#0f172a" font-size="12.5">przelewem weryfikacyjnym lub w aplikacji mObywatel.<tspan fill="#2563eb" font-weight="700">▋</tspan></text>
  </g>
  <!-- Oceny: przydatna / nieprzydatna -->
  <rect x="78" y="414" width="32" height="24" rx="8" fill="#ecfdf3" stroke="#16794c"/>
  <path d="M86 430 v-6 m4 6 l3 -1 1 -4 h-3 l1 -3 -3 2 v6 z" fill="none" stroke="#16794c" stroke-width="1.4" stroke-linejoin="round"/>
  <rect x="116" y="414" width="32" height="24" rx="8" fill="#ffffff" stroke="#e2e8f0"/>
  <path d="M124 422 v6 m4 -6 l3 1 1 4 h-3 l1 3 -3 -2 v-6 z" fill="none" stroke="#5b6b82" stroke-width="1.4" stroke-linejoin="round"/>

  <!-- Chipy z podpowiedziami -->
  <g font-size="11" fill="#13315c">
    <rect x="60" y="456" width="150" height="28" rx="14" fill="#ffffff" stroke="#cdd7e6"/>
    <text x="135" y="474" text-anchor="middle">Jak zrobić przelew?</text>
    <rect x="218" y="456" width="132" height="28" rx="14" fill="#ffffff" stroke="#cdd7e6"/>
    <text x="284" y="474" text-anchor="middle">Limity karty</text>
    <rect x="358" y="456" width="150" height="28" rx="14" fill="#ffffff" stroke="#cdd7e6"/>
    <text x="433" y="474" text-anchor="middle">Reklamacja</text>
  </g>

  <!-- Pole wpisywania -->
  <g>
    <rect x="60" y="506" width="720" height="46" rx="16" fill="#ffffff" stroke="#e2e8f0"/>
    <text x="80" y="534" fill="#5b6b82" font-size="12.5">Napisz wiadomość… (np. Jak otworzyć konto?)</text>
    <rect x="726" y="512" width="38" height="34" rx="11" fill="#2563eb"/>
    <path d="M737 530 l16 -6 -6 16 -3 -7 -7 -3 z" fill="none" stroke="#ffffff" stroke-width="2" stroke-linejoin="round"/>
  </g>
</svg>
